<?xml version="1.0" encoding="utf-8"?>
<!-- Generator: Adobe Illustrator 19.0.1, SVG Export Plug-In . SVG Version: 6.00 Build 0)  -->
<svg version="1.1" id="Слой_1" xmlns="http://www.w3.org/2000/svg" xmlns:xlink="http://www.w3.org/1999/xlink" x="0px" y="0px"
	 width="238.8px" height="50.3px" viewBox="-178 386.6 238.8 30.3" style="enable-background:new -178 386.6 238.8 45.3;"
	 xml:space="preserve">
<style type="text/css">
	.st0{fill:#FFFFFF;}
</style>
<g>
	<path class="st0" d="M-12.4,386.7h6.3v39h-8.8l-34.4-31.2v31.1h-6.3v-39h8.8l34.4,31.1V386.7z M60.3,425.7h-9.9l-6.6-10.1H13.1
		l-6.6,10.1h-7.3l25.6-39l0,0h9.9L60.3,425.7z M40.3,410.2l-11.8-18l-11.8,17.9L40.3,410.2L40.3,410.2z M-177.7,386.8h53.8v18.7
		c0,6.3-4.5,7.9-7.2,7.9h-7.2h-30.9v12.3h-8.5V386.8z M-169.2,408h32.6c4,0,4-3.4,4-3.4v-12.4h-36.6V408z M-104.8,392.2h37.3
		l3.6-5.4H-113h-0.3v11.6c0,6.3,4.5,7.6,7.2,7.8c-2.7,0.2-7.2,1.5-7.2,7.8v11.6h0.3h48.7v-5.4h-40.5V414c0,0-0.3-5.4,5.9-5.4h20.4
		l3.3-4.9h-23.7c-6.1,0-5.9-5.4-5.9-5.4V392.2z"/>
</g>
</svg>
